<svg xmlns="http://www.w3.org/2000/svg" width="800" height="1100">
	<g>
		<rect x="45" y="70" width="670" height="44" style="fill:#54184f" />
		<circle cx="65" cy="91" r="18" stroke="#FFF" stroke-width="1" fill="#54184f" />
		<text x="55" y="103" fill="#FFF" font-size="27pt" font-family="Myriad Pro Light">A dvanced supplementation</text>
	</g>
	
	<g>
		<rect x="45" y="270" width="40" height="120" style="fill:#54184f;stroke:#000000;stroke-width:1" />
		<text x="-178" y="100" fill="#FFF" transform="rotate(270 73,112)" font-family="Myriad Pro Light">Anti-Aging</text>
		
		<rect x="85" y="270" width="630" height="30" style="fill:#54184f;stroke:#000000;stroke-width:1" />
		<text x="100" y="287" fill="#FFF" font-size="12pt" font-family="Myriad Pro Light">Supplement</text>
		<text x="230" y="287" fill="#FFF" font-size="12pt" font-family="Myriad Pro Light">How Many</text>
		<text x="330" y="287" fill="#FFF" font-size="12pt" font-family="Myriad Pro Light">When</text>
		<text x="420" y="287" fill="#FFF" font-size="12pt" font-family="Myriad Pro Light">Supplement</text>
		<text x="540" y="287" fill="#FFF" font-size="12pt" font-family="Myriad Pro Light">How Many</text>
		<text x="650" y="287" fill="#FFF" font-size="12pt" font-family="Myriad Pro Light">When</text>
		
		<rect x="85" y="300" width="630" height="30" style="fill:#FFF;stroke:#000000;stroke-width:1" />
		<rect x="85" y="330" width="630" height="30" style="fill:#FFF;stroke:#000000;stroke-width:1" />
		<rect x="85" y="360" width="630" height="30" style="fill:#FFF;stroke:#000000;stroke-width:1" />
		
		<line x1="220" y1="390" x2="220" y2="270" style="stroke:#000000;stroke-width:1"/>
		<line x1="310" y1="390" x2="310" y2="270" style="stroke:#000000;stroke-width:1"/>
		<line x1="400" y1="390" x2="400" y2="270" style="stroke:#000000;stroke-width:1"/>
		<line x1="530" y1="390" x2="530" y2="270" style="stroke:#000000;stroke-width:1"/>
		<line x1="620" y1="390" x2="620" y2="270" style="stroke:#000000;stroke-width:1"/>
		
		<text x="100" y="317" fill="#000000" font-size="9pt" font-family="Myriad Pro Light">Telemore multivitamin</text>
		<text x="420" y="317" fill="#000000" font-size="9pt" font-family="Myriad Pro Light">Liquid fish oil</text>
		<text x="100" y="347" fill="#000000" font-size="9pt" font-family="Myriad Pro Light">Inflamation control</text>
		<text x="420" y="347" fill="#000000" font-size="9pt" font-family="Myriad Pro Light">Antioxidant formula</text>
		<text x="100" y="377" fill="#000000" font-size="9pt" font-family="Myriad Pro Light">Mega omegas</text>
		<text x="420" y="377" fill="#000000" font-size="9pt" font-family="Myriad Pro Light">Tri mag</text>
	</g>
	
	<g>
		<rect x="45" y="400" width="40" height="90" style="fill:#54184f;stroke:#000000;stroke-width:1" />
		<text x="-285" y="100" fill="#FFF" transform="rotate(270 73,112)" font-family="Myriad Pro Light">Hormone</text>
		<text x="-285" y="115" fill="#FFF" transform="rotate(270 73,112)" font-family="Myriad Pro Light">boosters</text>
				
		<rect x="85" y="400" width="630" height="30" style="fill:#FFF;stroke:#000000;stroke-width:1" />
		<rect x="85" y="430" width="630" height="30" style="fill:#FFF;stroke:#000000;stroke-width:1" />
		<rect x="85" y="460" width="630" height="30" style="fill:#FFF;stroke:#000000;stroke-width:1" />
		
		<line x1="220" y1="490" x2="220" y2="400" style="stroke:#000000;stroke-width:1"/>
		<line x1="310" y1="490" x2="310" y2="400" style="stroke:#000000;stroke-width:1"/>
		<line x1="400" y1="490" x2="400" y2="400" style="stroke:#000000;stroke-width:1"/>
		<line x1="530" y1="490" x2="530" y2="400" style="stroke:#000000;stroke-width:1"/>
		<line x1="620" y1="490" x2="620" y2="400" style="stroke:#000000;stroke-width:1"/>
		
		<text x="100" y="417" fill="#000000" font-size="9pt" font-family="Myriad Pro Light">Adrenal support</text>
		<text x="420" y="417" fill="#000000" font-size="9pt" font-family="Myriad Pro Light">Thyroid support</text>
		<text x="100" y="447" fill="#000000" font-size="9pt" font-family="Myriad Pro Light">Prostrate support</text>
		<text x="420" y="447" fill="#000000" font-size="9pt" font-family="Myriad Pro Light">Vitamin D3</text>
		<text x="100" y="477" fill="#000000" font-size="9pt" font-family="Myriad Pro Light">Estrogen support</text>
		<text x="420" y="477" fill="#000000" font-size="9pt" font-family="Myriad Pro Light">Secretropin</text>
	</g>
	
	<g>
		<rect x="45" y="500" width="40" height="90" style="fill:#54184f;stroke:#000000;stroke-width:1" />
		<text x="-385" y="100" fill="#FFF" transform="rotate(270 73,112)" font-family="Myriad Pro Light">Cardio</text>
		<text x="-385" y="115" fill="#FFF" transform="rotate(270 73,112)" font-family="Myriad Pro Light">support</text>
				
		<rect x="85" y="500" width="630" height="30" style="fill:#FFF;stroke:#000000;stroke-width:1" />
		<rect x="85" y="530" width="630" height="30" style="fill:#FFF;stroke:#000000;stroke-width:1" />
		<rect x="85" y="560" width="630" height="30" style="fill:#FFF;stroke:#000000;stroke-width:1" />
		
		<line x1="220" y1="590" x2="220" y2="500" style="stroke:#000000;stroke-width:1"/>
		<line x1="310" y1="590" x2="310" y2="500" style="stroke:#000000;stroke-width:1"/>
		<line x1="400" y1="590" x2="400" y2="500" style="stroke:#000000;stroke-width:1"/>
		<line x1="530" y1="590" x2="530" y2="500" style="stroke:#000000;stroke-width:1"/>
		<line x1="620" y1="590" x2="620" y2="500" style="stroke:#000000;stroke-width:1"/>
		
		<text x="100" y="517" fill="#000000" font-size="9pt" font-family="Myriad Pro Light">Circulation support</text>
		<text x="420" y="517" fill="#000000" font-size="9pt" font-family="Myriad Pro Light">Plague control</text>
		<text x="100" y="547" fill="#000000" font-size="9pt" font-family="Myriad Pro Light">Heart support</text>
		<text x="420" y="547" fill="#000000" font-size="9pt" font-family="Myriad Pro Light">Niacin</text>
		<text x="100" y="577" fill="#000000" font-size="9pt" font-family="Myriad Pro Light">Lipid support</text>
		<text x="420" y="577" fill="#000000" font-size="9pt" font-family="Myriad Pro Light">Vitamin C</text>
	</g>
	
	<g>
		<rect x="45" y="600" width="40" height="90" style="fill:#54184f;stroke:#000000;stroke-width:1" />
		<text x="-495" y="100" fill="#FFF" transform="rotate(270 73,112)" font-family="Myriad Pro Light">Diet control</text>
		
		<rect x="85" y="600" width="630" height="30" style="fill:#FFF;stroke:#000000;stroke-width:1" />
		<rect x="85" y="630" width="630" height="30" style="fill:#FFF;stroke:#000000;stroke-width:1" />
		<rect x="85" y="660" width="630" height="30" style="fill:#FFF;stroke:#000000;stroke-width:1" />
		
		<line x1="220" y1="690" x2="220" y2="600" style="stroke:#000000;stroke-width:1"/>
		<line x1="310" y1="690" x2="310" y2="600" style="stroke:#000000;stroke-width:1"/>
		<line x1="400" y1="690" x2="400" y2="600" style="stroke:#000000;stroke-width:1"/>
		<line x1="530" y1="690" x2="530" y2="600" style="stroke:#000000;stroke-width:1"/>
		<line x1="620" y1="690" x2="620" y2="600" style="stroke:#000000;stroke-width:1"/>
		
		<text x="100" y="617" fill="#000000" font-size="9pt" font-family="Myriad Pro Light">Appetite support</text>
		<text x="420" y="617" fill="#000000" font-size="9pt" font-family="Myriad Pro Light">Glucose control</text>
		<text x="100" y="647" fill="#000000" font-size="9pt" font-family="Myriad Pro Light">Probiotic support</text>
		<text x="420" y="647" fill="#000000" font-size="9pt" font-family="Myriad Pro Light">Carb blocker</text>
		<text x="100" y="677" fill="#000000" font-size="9pt" font-family="Myriad Pro Light">Weight burn</text>
		<text x="420" y="677" fill="#000000" font-size="9pt" font-family="Myriad Pro Light">Sleep support</text>
	</g>
	
	
	
	<g>
		<text x="45" y="750" fill="#54184f" font-size="22pt" font-family="Myriad Pro Light">Physician comments:</text>
		<rect x="45" y="780" width="670" height="195" style="fill:#FFF;stroke:#000000;stroke-width:1" />
	</g>
	<text x="300" y="1090" fill="#54184f" font-size="12pt" font-family="Myriad Pro Light">Step two - mentor</text>
</svg>