<svg xmlns="http://www.w3.org/2000/svg" width="800" height="1100">
	<g>
		<rect x="45" y="70" width="670" height="44" style="fill:#54184f" />
		<circle cx="65" cy="91" r="16" stroke="#FFF" stroke-width="1" fill="#54184f" />
		<text x="57" y="103" fill="#FFF" font-size="27pt" font-family="Myriad Pro Light">T oxin reduction and cancer screening</text>
	</g>

	<g>
		<text x="45" y="280" fill="#54184f" font-size="22pt" font-family="Myriad Pro Light">Physician comments:</text>
		<rect x="45" y="300" width="300" height="195" style="fill:#FFF;stroke:#000000;stroke-width:1" />
		<line x1="360" y1="500" x2="360" y2="260" style="stroke:#000000;stroke-width:1"/>
	</g>
	
	<g>
		<rect x="370" y="260" width="10" height="10" style="fill:#FFF;stroke:#000000;stroke-width:1.5" />
		<text x="390" y="268" fill="#000000" font-size="10pt" font-family="Myriad Pro Light">Is Sugar Toxic (Video)</text>
		
		<rect x="370" y="285" width="10" height="10" style="fill:#FFF;stroke:#000000;stroke-width:1.5" />
		<text x="390" y="293" fill="#000000" font-size="10pt" font-family="Myriad Pro Light">Caloric Sweetener And Dyslipedemia (Article)</text>
		
		<rect x="370" y="310" width="10" height="10" style="fill:#FFF;stroke:#000000;stroke-width:1.5" />
		<text x="390" y="318" fill="#000000" font-size="10pt" font-family="Myriad Pro Light">Detox Or Die (Book)</text>
		
		<rect x="370" y="335" width="10" height="10" style="fill:#FFF;stroke:#000000;stroke-width:1.5" />
		<text x="390" y="343" fill="#000000" font-size="10pt" font-family="Myriad Pro Light">The Detox Strategy (Book)</text>
		
		<rect x="370" y="360" width="10" height="10" style="fill:#FFF;stroke:#000000;stroke-width:1.5" />
		<text x="390" y="368" fill="#000000" font-size="10pt" font-family="Myriad Pro Light">Toxins And Inability To LOse Weight  (Article)</text>
		
		<rect x="370" y="385" width="10" height="10" style="fill:#FFF;stroke:#000000;stroke-width:1.5" />
		<text x="390" y="393" fill="#000000" font-size="10pt" font-family="Myriad Pro Light">Cancer Is A Man Made Disease (Article)</text>
		
		<rect x="370" y="410" width="10" height="10" style="fill:#FFF;stroke:#000000;stroke-width:1.5" />
		<text x="390" y="418" fill="#000000" font-size="10pt" font-family="Myriad Pro Light">Tomatoes, Lycopene And Prostrate Cancer (Article)</text>
		
		<rect x="370" y="435" width="10" height="10" style="fill:#FFF;stroke:#000000;stroke-width:1.5" />
		<text x="390" y="443" fill="#000000" font-size="10pt" font-family="Myriad Pro Light">Earthing (Book)</text>
		
		<rect x="370" y="460" width="10" height="10" style="fill:#FFF;stroke:#000000;stroke-width:1.5" />
		<text x="390" y="468" fill="#000000" font-size="10pt" font-family="Myriad Pro Light">Raw Food (Video)</text>
		
		<rect x="370" y="485" width="10" height="10" style="fill:#FFF;stroke:#000000;stroke-width:1.5" />
		<text x="390" y="493" fill="#000000" font-size="10pt" font-family="Myriad Pro Light">Detox With Oral Chelatin (Book)</text>
	</g>
	
	
	<g>
		<rect x="45" y="570" width="670" height="44" style="fill:#54184f" />
		<circle cx="66" cy="591" r="18" stroke="#FFF" stroke-width="1" fill="#54184f" />
		<text x="57" y="603" fill="#FFF" font-size="27pt" font-family="Myriad Pro Light">E xercise</text>
	</g>
	
	
	<g>
		<text x="45" y="800" fill="#54184f" font-size="22pt" font-family="Myriad Pro Light">Physician comments:</text>
		<rect x="45" y="820" width="300" height="195" style="fill:#FFF;stroke:#000000;stroke-width:1" />
		<line x1="360" y1="1025" x2="360" y2="780" style="stroke:#000000;stroke-width:1"/>
	</g>
	
	<g>
		<rect x="370" y="780" width="10" height="10" style="fill:#FFF;stroke:#000000;stroke-width:1.5" />
		<text x="390" y="788" fill="#000000" font-size="10pt" font-family="Myriad Pro Light">Body For Life (Book)</text>
		
		<rect x="370" y="805" width="10" height="10" style="fill:#FFF;stroke:#000000;stroke-width:1.5" />
		<text x="390" y="813" fill="#000000" font-size="10pt" font-family="Myriad Pro Light">The Life Plan (Book)</text>
		
		<rect x="370" y="830" width="10" height="10" style="fill:#FFF;stroke:#000000;stroke-width:1.5" />
		<text x="390" y="838" fill="#000000" font-size="10pt" font-family="Myriad Pro Light">Eternity Exercise (Video)</text>
		
		<rect x="370" y="855" width="10" height="10" style="fill:#FFF;stroke:#000000;stroke-width:1.5" />
		<text x="390" y="863" fill="#000000" font-size="10pt" font-family="Myriad Pro Light">Exercise As Hypertension Therapy (Article)</text>
		
		<rect x="370" y="880" width="10" height="10" style="fill:#FFF;stroke:#000000;stroke-width:1.5" />
		<text x="390" y="888" fill="#000000" font-size="10pt" font-family="Myriad Pro Light">Sitting Shaves Years Off Your Life (Article)</text>
		
		<rect x="370" y="905" width="10" height="10" style="fill:#FFF;stroke:#000000;stroke-width:1.5" />
		<text x="390" y="913" fill="#000000" font-size="10pt" font-family="Myriad Pro Light">Exercise Slows Aging Process (Article)</text>
		
		<rect x="370" y="930" width="10" height="10" style="fill:#FFF;stroke:#000000;stroke-width:1.5" />
		<text x="390" y="938" fill="#000000" font-size="10pt" font-family="Myriad Pro Light">Aerobic And Resistence Exercise For Diabetes (Article)</text>
		
		<rect x="370" y="955" width="10" height="10" style="fill:#FFF;stroke:#000000;stroke-width:1.5" />
		<text x="390" y="963" fill="#000000" font-size="10pt" font-family="Myriad Pro Light">The y's Way TO Physical Fitness (Book)</text>
		
		<rect x="370" y="980" width="10" height="10" style="fill:#FFF;stroke:#000000;stroke-width:1.5" />
		<text x="390" y="988" fill="#000000" font-size="10pt" font-family="Myriad Pro Light">The Power OF Ten (Book)</text>
		
		<rect x="370" y="1005" width="10" height="10" style="fill:#FFF;stroke:#000000;stroke-width:1.5" />
		<text x="390" y="1013" fill="#000000" font-size="10pt" font-family="Myriad Pro Light">Exercise And Psychological WellBeing (Manual)</text>
		
	</g>
	
	<text x="300" y="1090" fill="#54184f" font-size="12pt" font-family="Myriad Pro Light">Step two - mentor</text>
</svg>