<?xml version="1.0" encoding="UTF-8" standalone="no"?>
<!-- Created with Inkscape (http://www.inkscape.org/) -->

<svg
   xmlns:dc="http://purl.org/dc/elements/1.1/"
   xmlns:cc="http://creativecommons.org/ns#"
   xmlns:rdf="http://www.w3.org/1999/02/22-rdf-syntax-ns#"
   xmlns:svg="http://www.w3.org/2000/svg"
   xmlns="http://www.w3.org/2000/svg"
   xmlns:sodipodi="http://sodipodi.sourceforge.net/DTD/sodipodi-0.dtd"
   xmlns:inkscape="http://www.inkscape.org/namespaces/inkscape"
   width="744.09448819"
   height="1052.3622047"
   id="svg4203"
   version="1.1"
   inkscape:version="0.48.2 r9819"
   sodipodi:docname="page2">
  <defs
     id="defs4205">
    <clipPath
       id="clipPath4225"
       clipPathUnits="userSpaceOnUse">
      <path
         id="path4227"
         d="m 0,841.89 595.276,0 L 595.276,0 0,0 0,841.89 z" />
    </clipPath>
  </defs>
  <sodipodi:namedview
     id="base"
     pagecolor="#ffffff"
     bordercolor="#666666"
     borderopacity="1.0"
     inkscape:pageopacity="0.0"
     inkscape:pageshadow="2"
     inkscape:zoom="0.35"
     inkscape:cx="375"
     inkscape:cy="520"
     inkscape:document-units="px"
     inkscape:current-layer="layer1"
     showgrid="false"
     inkscape:window-width="1366"
     inkscape:window-height="706"
     inkscape:window-x="-8"
     inkscape:window-y="-8"
     inkscape:window-maximized="1" />
  <metadata
     id="metadata4208">
    <rdf:RDF>
      <cc:Work
         rdf:about="">
        <dc:format>image/svg+xml</dc:format>
        <dc:type
           rdf:resource="http://purl.org/dc/dcmitype/StillImage" />
        <dc:title></dc:title>
      </cc:Work>
    </rdf:RDF>
  </metadata>
  <g
     inkscape:label="Layer 1"
     inkscape:groupmode="layer"
     id="layer1">
    <g
       transform="matrix(1.4511274,0,0,-1.8360779,-79.268807,1292.6374)"
       inkscape:label="Eternity_A4_V1"
       id="g4219">
      <g
         id="g4221">
        <g
           clip-path="url(#clipPath4225)"
           id="g4223">
          <text
             id="text4229"
             transform="matrix(1,0,0,-1,56.8179,658.5649)">
            <tspan
               id="tspan4231"
               sodipodi:role="line"
               y="0"
               x="0 13.456 22.271999 36.337002 52.345001 58.695999 74.124001 89.667999 103.733 110.084 124.584 130.935 154.686 168.75101 181.91701 192.73399 208.133 216.369"
               style="font-size:29px;font-variant:normal;font-weight:300;font-stretch:normal;writing-mode:lr-tb;fill:#56004e;fill-opacity:1;fill-rule:nonzero;stroke:none;font-family:Myriad Pro Light;-inkscape-font-specification:MyriadPro-Light">Step one – measure</tspan>
          </text>
          <text
             id="text4233"
             transform="matrix(1,0,0,-1,56.8179,630.5649)">
            <tspan
               id="tspan4235"
               sodipodi:role="line"
               y="0"
               x="0 5.9099998 9.1000004 11.38 16.139999 19.27 24.219999 27.33 32.790001 34.970001 38.27 42.77 45.049999 52.299999 57.25 59.540001 65.160004 68.110001 73.059998 76.889999 81.839996 87.290001 90.480003 92.769997 97.199997 102.62 108.03 111.08 113.36 118.98 121.17 126.58 134.87 139.50999 142.63 147.07001 152.02 155.07001 158.89999 161.19 165.83 171.28 176.82001 179.11 184.56 189.50999 194.14999 196.37 199.56 205.02 207.3 209.49001 214.95 220.49001 222.67999 227.24001 231.88 235.00999 240.42999 243.48 247.31 249.60001 254.24001 257.35001 260.39999 265.04001 270.5 276.04001 280.98999 286.53 288.82001 294.23001 298.06 300.25 305.70999 311.25 313.54001 316.73001 322.19 327.14001 329.42001 331.62 338.10001 342.84 347.60001 353.92999 359.07999 365.03 369.60001 371.88 376.51999 381.07001 384.01001 389.42999 394.79001 399.29001 407.57999 409.85999 414.95999 417.23999 421.07001 426.48001 428.76001 433.39999 437.23001 439.51001 442.64001 448.04999 450.32999 455.28 463.57001 469.19 474.64001 479.28 483.10999 485.29001 489.34 494.19"
               style="font-size:10px;font-variant:normal;font-weight:300;font-stretch:normal;writing-mode:lr-tb;fill:#000000;fill-opacity:1;fill-rule:nonzero;stroke:none;font-family:Myriad Pro Light;-inkscape-font-specification:MyriadPro-Light">At Eternity we present your biomarkers and health indicators arranged using the INTEGRAL acronym – so as to emphasize</tspan>
            <tspan
               id="tspan4237"
               sodipodi:role="line"
               y="14"
               x="0.0099999998 3.2 8.6499996 13.6 15.88 18.059999 26.35 31.969999 37.389999 40.689999 43.880001 48.52 53.970001 58.52 63.470001 65.760002 71.18 73.889999 76.18 80.82 83.099998 87.660004 93.080002 101.37 106.99 109.93 114.88 120.34 125.29 130.75 134.58 136.75999 141.31 146.25999 148.55 150.77 152.96001 155.53 160.48 164.31 167.61 172.11 174.33 179.28 181.57001 187.19 190.13 195.55 201.00999 204.05 208.69 216.98 219.25999 222.39 227.81 230.09 235.03999 240.5 245.96001 250.60001 256.06 260.62 265.57001 267.85999 272.29001 277.70999 283.12 286.16 288.45001 293.91 298.85999 303.5 305.72 308.91 314.35999 316.64999 321.29001 326.73999 332.28 334.56 336.78 342.19 347.64999 353.19 358.17999 362.79999 364.98001 368.28 372.45001 374.29001 376.57001 383.20001 388.14999 391.34 395.97 398.16 400.38 404.20999 406.48999 411.89999 414.62 416.89999 421.53 423.75 425.97 428.25 432.67999 438.09 443.5 446.54001 448.82001 451.76999 456.72 460.54999 465.95999 468.17999 471.37 475.20001 477.48001 482.10999 487.57001 493.01001"
               style="font-size:10px;font-variant:normal;font-weight:300;font-stretch:normal;writing-mode:lr-tb;fill:#000000;fill-opacity:1;fill-rule:nonzero;stroke:none;font-family:Myriad Pro Light;-inkscape-font-specification:MyriadPro-Light">the importance of a comprehensive lifestyle program to enhance your health and longevity. Details of all your results and</tspan>
            <tspan
               id="tspan4239"
               sodipodi:role="line"
               y="28"
               x="0.02 4.4499998 9.8599997 15.27 18.32 20.6 26.219999 29.17 34.580002 40.040001 43.09 47.720001 56.009998 59.84 62.130001 66.760002 69.709999 74.660004 76.949997 85.239998 90.660004 96.120003 98.300003 101.43 106.85 109.79 114.74 120.28 122.56 127.98 133.44 135.72 140.14999 145.56 150.97 154.02 156.31 161.92999 166.88 169.92999 173.75999 179.17999 184.64 189.27 191.49001 193.78 198.35001 200.53999 203.12 208.07001 211.25999 213.45 221.74001 226.69 228.98 235.38 240.33 244.97 247.19 250.38 255.84 258.13 264 267.82999 271.66 276.60999 280.44 284.26999 292.56 297.51001 302.97 306.16 308.45001 313.09 318.54999 324.09 326.37 334.32999 339.73999 345.19 347.38 350.51001 355.92001 359.03 361.20999 366.66 372.20001 374.48001 379.39001 382.32999 387.75 393.20999 396.25 400.88 409.17001 411.45001 414.19 418.76001 425.16 431.04999 438.92001 444.03 446.78"
               style="font-size:10px;font-variant:normal;font-weight:300;font-stretch:normal;writing-mode:lr-tb;fill:#000000;fill-opacity:1;fill-rule:nonzero;stroke:none;font-family:Myriad Pro Light;-inkscape-font-specification:MyriadPro-Light">your programs are monitored on your personal Lifetime Health Assessment and Monitoring Program (LHAMP).</tspan>
          </text>
          <text
             id="text4241"
             transform="matrix(1,0,0,-1,56.8179,560.5649)">
            <tspan
               id="tspan4243"
               sodipodi:role="line"
               y="0"
               x="0 13.746 22.823 37.178001 53.476002 60.117001 69.686996 90.711998 106.401 113.042 127.542 134.15401 158.19501 172.55 188.384 197.461 213.179 221.73399"
               style="font-size:29px;font-variant:normal;font-weight:300;font-stretch:normal;writing-mode:lr-tb;fill:#56004e;fill-opacity:1;fill-rule:nonzero;stroke:none;font-family:Myriad Pro Light;-inkscape-font-specification:MyriadPro-Light">Step two – mentor</tspan>
          </text>
          <text
             id="text4245"
             transform="matrix(1,0,0,-1,56.8179,532.5649)">
            <tspan
               id="tspan4247"
               sodipodi:role="line"
               y="0"
               x="0 5.9099998 9.1000004 11.38 16.139999 19.27 24.219999 27.33 32.790001 34.970001 38.27 42.77 45.049999 50.470001 55.880001 58.919998 61.200001 63.779999 69.190002 73.75 79.160004 82.989998 85.269997 87.459999 91.290001 93.580002 99 104.46 106.75 109.69 114.68 119.22 124.17 127.22 131.05 133.24001 138.7 144.24001 146.53 151.08 155.72 158.66 164.2 166.39 171.81 180.10001 185.05 188.24001 192.88 198.5 203.91 206.13 208.32001 212.88 215.17 220.71001 222.89999 226.73 231.67999 236.32001 240.14999 245 246.84 249.13 256.45001 261.89999 264.09 268.64999 274.10999 276.39999 278.59 282.42001 284.70999 287.89999 293.35001 298.29999 300.59 305.03 310.01999 314.51999 316.81 319.94 325.35001 327.64001 331.47 336.88 341.44 345.98999 350.94 354.76999 358.60001 361.32001 366.73001 368.95001 371.23999 377.09 382.63 387.57999 389.87 397.82001 402.45999 407.91 412.54001 418.07999 423.03 431.32001 436.26999 441.72 444.91 446.73999 449.01999 455.82999 461.23999 464.29001 466.57001 471.60001 476.95999 481.45999 485.29001 487.48001 492.03 494.20999 498.85001 504.29999 508.03"
               style="font-size:10px;font-variant:normal;font-weight:300;font-stretch:normal;writing-mode:lr-tb;fill:#000000;fill-opacity:1;fill-rule:nonzero;stroke:none;font-family:Myriad Pro Light;-inkscape-font-specification:MyriadPro-Light">At Eternity our focus is on reversing cardiometabolic disease, which is the key to successful Age Management. Our Physicians</tspan>
            <tspan
               id="tspan4249"
               sodipodi:role="line"
               y="14"
               x="0.0099999998 4.6399999 10.09 15.63 17.91 22.48 24.66 27.24 32.189999 36.02 39.32 43.82 46.040001 50.990002 53.279999 57.830002 63.25 67.879997 72.43 77.889999 82.839996 86.669998 88.959999 96.279999 98.470001 100.69 102.91 105.2 110.66 115.61 117.83 123.45 125.74 130.17 135.59 141 143.28 145.47 153.75999 159.38 162.32001 167.67999 172.22 177.17 179.46001 182.64999 188.11 193.52 197.35001 202.3 204.58 209.02 214.00999 218.50999 220.8 223.02 225.21001 227.78999 232.74001 236.57001 239.87 244.37 246.59 251.53999 253.83 256.54999 261.19 265.85001 268.98001 274.39999 277.45001 281.28 283.57001 288.12 293.57001 298.94 306.26001 311.70999 314 317.13 322.54999 324.82999 327.01001 332.45999 337.39999 342.81 347.76001 353.20999 357.76999 362.72 365 369.42999 374.84 380.25 383.29001 385.57999 391.12 396.07001 401.53 406.48001 408.76001 413.70999 418.10001 423.72 426.66 431.60999 435.44 439.26999 441.45001 446.87 452.32001 454.60001 459.23001 464.69 470.23001 472.51001 476.34 478.56 483.92999 491.14999"
               style="font-size:10px;font-variant:normal;font-weight:300;font-stretch:normal;writing-mode:lr-tb;fill:#000000;fill-opacity:1;fill-rule:nonzero;stroke:none;font-family:Myriad Pro Light;-inkscape-font-specification:MyriadPro-Light">and Lifestyle coaches will help you improve those key lifestyle factors known to inﬂuence your gene expression and slow</tspan>
            <tspan
               id="tspan4251"
               sodipodi:role="line"
               y="28"
               x="0.02 5.5599999 10.93 18.25 23.700001 25.98 29.17 34.619999 39.57 41.849998 46.490002 51.950001 54.139999 59.59 65.129997 67.419998 73.040001 75.989998 81.400002 85.949997 90.900002 94.730003 98.459999"
               style="font-size:10px;font-variant:normal;font-weight:300;font-stretch:normal;writing-mode:lr-tb;fill:#000000;fill-opacity:1;fill-rule:nonzero;stroke:none;font-family:Myriad Pro Light;-inkscape-font-specification:MyriadPro-Light">down the aging process.</tspan>
            <tspan
               id="tspan4253"
               sodipodi:role="line"
               y="42"
               x="0.02 6.4099998 11.36 14.55 17.74 19.93 25.379999 30.92 33.200001 37.830002 43.290001 48.830002 51.119999 55.560001 60.509998 65.459999 71.080002 73.269997 78.720001 84.260002 86.550003 90.980003 96.400002 101.81 104.86 107.15 112.77 114.96 120.37 128.66 133.3 136.42 140.86 145.81 148.86 152.69 154.97 157.16 162.62 164.91 168.10001 173.55 178.5 180.78999 186 189.08 193.13 198.55 204.00999 208.96001 211.24001 213.95 219.37 224.99001 228.17999 230.37 238.66 244.07001 252.36 254.64999 260.10999 265.06 269.69 271.91 275.10001 280.56 282.85001 286.89999 292.31 297.76999 302.72 305.47 307.76001 309.95001 313.78 316.07001 320.51001 325.5 330 335.09 337.38 342.79001 348.23999 350.45999 354.95999 357.23999 362.81 367.31 369.59 372.54001 377.48999 383.10999 388.06 392.69 395.82001 400.76999 406.31 408.60001 416.89001 421.84 426.48001 430.31 435.72 438.82999 441.01001 446.45999 452 454.28"
               style="font-size:10px;font-variant:normal;font-weight:300;font-stretch:normal;writing-mode:lr-tb;fill:#000000;fill-opacity:1;fill-rule:nonzero;stroke:none;font-family:Myriad Pro Light;-inkscape-font-specification:MyriadPro-Light">Getting and keeping your biomarkers in the e-zone (optimum health zone) is key– only by repeated measuring a</tspan>
          </text>
          <text
             id="text4255"
             transform="matrix(1,0,0,-1,515.6992,490.5649)">
            <tspan
               id="tspan4257"
               sodipodi:role="line"
               y="0"
               x="0 5.46 10.9"
               style="font-size:10px;font-variant:normal;font-weight:300;font-stretch:normal;writing-mode:lr-tb;fill:#000000;fill-opacity:1;fill-rule:nonzero;stroke:none;font-family:Myriad Pro Light;-inkscape-font-specification:MyriadPro-Light">nd</tspan>
            <tspan
               id="tspan4259"
               sodipodi:role="line"
               y="14"
               x="-458.88 -450.59 -445.17999 -439.72 -437.54001 -434.41 -429 -425.89001 -423.70999 -418.26001 -412.72 -410.42999 -405.01999 -401.82999 -399.64999 -397.42999 -395.23999 -391.12 -388.94 -383.48001 -377.94 -375.66 -371.23001 -365.82001 -360.41 -357.35999 -355.07001 -349.45001 -344.5 -341.45001 -337.62 -332.20999 -326.75 -322.10999 -319.89001 -317.60001 -313.03 -306.63 -300.73999 -292.85999 -287.73999 -285.45001 -280.89999 -276.26001 -270.79999 -268.51999 -261.26999 -256.32001 -254.03 -248.41 -243.46001 -241.17 -237.34 -231.92999 -228.98 -224.03 -221.74001 -217.31 -211.89 -206.48 -203.42999 -201.14 -198.95 -193.49001 -190.36 -185.41 -179.95 -176.89999 -172.25999 -170.03999 -167.75 -162.28999 -157.34 -152.7 -150.48 -147.28999 -141.83 -139.53999 -133.92 -130.98 -125.56 -120.1 -117.05 -112.42 -104.13 -101.84 -99.660004 -95.830002 -93.550003 -86.300003 -80.889999 -77.760002 -73.209999 -71.029999 -65.57 -60.16 -58.32 -56.040001 -49.23 -43.82 -40.779999 -38.490002 -36.310001 -30.860001 -28.68 -25.49 -23.309999 -18.68 -16.459999 -14.17 -8.6300001 -3.22 1.42 3.6400001 5.9200001 13.24 15.42 17.639999 19.860001 22.139999 24.709999 30.120001 34.68 40.09 43.82"
               style="font-size:10px;font-variant:normal;font-weight:300;font-stretch:normal;writing-mode:lr-tb;fill:#000000;fill-opacity:1;fill-rule:nonzero;stroke:none;font-family:Myriad Pro Light;-inkscape-font-specification:MyriadPro-Light">monitoring utilizing your personal LHAMP can we be sure your integral health program is working. Our initial goal will focus</tspan>
            <tspan
               id="tspan4261"
               sodipodi:role="line"
               y="28"
               x="-458.87 -453.45999 -448.01001 -445.72 -441.17001 -435.76001 -432.64999 -429.70001 -424.75 -420.07999 -416.89001 -414.70999 -409.26001 -403.72 -401.44 -398.25 -392.79999 -387.85001 -385.57001 -378.32001 -372.91 -369.85999 -366.03 -362.84 -360.54999 -355.57001 -353.28 -349.45001 -344.89999 -339.48001 -336.54001 -331.59 -327.76001 -325.48001 -323.29001 -317.82999 -315.54001 -310.59 -305.95999 -301.39999 -295.94 -293.66 -288.23999 -285.51999 -283.23001 -280.04001 -274.59 -269.64001 -267.35001 -262.37 -259.29001 -257.07001 -254.88 -252.3 -247.35001 -243.52 -240.22 -235.72 -233.5 -228.55 -226.25999 -217.97 -212.55 -207.00999 -201.60001 -199.38 -194.42999 -190.7"
               style="font-size:10px;font-variant:normal;font-weight:300;font-stretch:normal;writing-mode:lr-tb;fill:#000000;fill-opacity:1;fill-rule:nonzero;stroke:none;font-family:Myriad Pro Light;-inkscape-font-specification:MyriadPro-Light">on correcting the worst 3 scores in each of the 8-lifestyle modules.</tspan>
          </text>
          <text
             id="text4263"
             transform="matrix(1,0,0,-1,56.8179,420.5649)">
            <tspan
               id="tspan4265"
               sodipodi:role="line"
               y="0"
               x="0 13.746 22.823 37.178001 53.476002 60.117001 69.367996 85.202003 93.727997 108.083 122.438 129.05 143.55 149.901 173.942 189.66 205.494 211.81599 220.89301 236.582 245.427 252.06799 259.927 275.03601 283.96799 297.25 315.81 332.89099 355.74301 370.591"
               style="font-size:29px;font-variant:normal;font-weight:300;font-stretch:normal;writing-mode:lr-tb;fill:#56004e;fill-opacity:1;fill-rule:nonzero;stroke:none;font-family:Myriad Pro Light;-inkscape-font-specification:MyriadPro-Light">Step three – monitor (e-LHAMP)</tspan>
          </text>
          <text
             id="text4267"
             transform="matrix(1,0,0,-1,56.8179,392.5645)">
            <tspan
               id="tspan4269"
               sodipodi:role="line"
               y="0"
               x="0 4.71 10.17 12.35 16.18 18.459999 20.639999 24.469999 26.75 32.369999 37.32 40.450001 45.900002 50.529999 56.150002 59.98 62.27 65.459999 70.919998 75.870003 78.160004 86.449997 91.870003 95.699997 98.889999 101.17 106.58 112.03 114.22 119.74 125.15 130.10001 132.38 137.02 142.48 148.02 150.3 155.25 159.53999 164.10001 166.28999 169.48 171.67 177.12 182.66 184.95 187.52 192.47 197.11 200.3 205.71001 208.64999 213.60001 215.89 221.31 224.03 226.31 231.07001 234.2 239.14999 242.25999 247.72 249.91 253.21001 257.38 259.22 261.16 269.20999 274.16 276.45001 281.85999 285.69 290.64001 292.92001 296.75 299.94 304.57999 307.70999 312.66 314.94 320.35999 323.07001 325.35999 328.54999 334 338.95001 341.23999 345.87 349.17001 352.35999 354.64999 358.48001 363.03 365.98001 370.92999 375.88 381.32999 383.51999 388.97 394.51001 396.79999 401.42999 406.88 412.42001 414.70001 420.23999 422.42001 427.88 430.06 433.25 437.88 440.10001 442.38 447.92001 452.91 457.51999 459.70999 464.26001 469.20999 473.04001 475.32999 478.51999 483.16 485.34 487.56 492.97 495.91 500.85999 506.29999"
               style="font-size:10px;font-variant:normal;font-weight:300;font-stretch:normal;writing-mode:lr-tb;fill:#000000;fill-opacity:1;fill-rule:nonzero;stroke:none;font-family:Myriad Pro Light;-inkscape-font-specification:MyriadPro-Light">This is perhaps the most unique and exciting feature of Eternity. We use state of the art screening and digital devices tailored</tspan>
            <tspan
               id="tspan4271"
               sodipodi:role="line"
               y="14"
               x="0.0099999998 3.1400001 8.5500002 10.83 15.26 20.67 26.08 29.120001 31.4 36.939999 41.889999 47.349998 52.299999 55.490002 57.669998 62.23 64.519997 66.699997 72.150002 77.690002 79.879997 84.5 86.68 92.220001 97.629997 102.26 104.48 106.67 109.97 114.47 116.76 119.89 125.31 127.6 135.89 141.31 146.77 148.96001 152.09 157.50999 160.55 162.84 167.48 169.7 171.92 174.2 178.63 184.03999 189.45 192.5 194.78 200.24001 205.19 209.83 212.05 215.24001 220.7 222.99001 228.53 233.17 236.36 241 243.28999 248.7 254.16 256.45001 260.88 266.29001 271.70001 274.75 277.04001 282.66 287.60999 290.66 294.48999 299.89999 305.35999 310 312.22 314.51001 317.20999 322.42001 325.5 330.07001 336.47 342.35999 350.23001 355.35001 358.09 359.92001 362.20001 368.14999 370.37 372.59 374.87 379.29999 384.70999 390.12 393.17001 395.45001 400.89999 405.85001 410.48999 412.70999 415.89999 421.35001 423.63 425.82001 431.26999 436.81 438.98999 443.54999 448.17999 451.31 456.73001 459.76999 463.60001 465.88 470.44 475.07001 480.42999"
               style="font-size:10px;font-variant:normal;font-weight:300;font-stretch:normal;writing-mode:lr-tb;fill:#000000;fill-opacity:1;fill-rule:nonzero;stroke:none;font-family:Myriad Pro Light;-inkscape-font-specification:MyriadPro-Light">to your genetic individuality to monitor all your health data on your personal (e-LHAMP). All your health indicators can</tspan>
            <tspan
               id="tspan4273"
               sodipodi:role="line"
               y="28"
               x="0.02 5.6399999 10.59 12.88 15.06 20.51 24.34 27.530001 32.169998 37.619999 40.810001 43.029999 47.529999 49.82 55.360001 57.549999 61.380001 67 69.220001 73.800003 78.230003 83.18 88.720001 91.010002 96.43 101.89 104.18 108.61 114.03 119.44 122.48 124.77 129.33 134.74001 143.03 148.64999 154.06 157.19 162.14 165.19 167.48 172.89 175.94 178.23 183.85001 189.31 194.73 200.19 205.14 207.42999 212.41 217.39 220.99001 225.97 228.25999 233.24001 238.22 243.2 245.48 251.02 255.59 260.09 263.92001 266.20999 270.85001 273.13 277.56 282.51001 287.14999 289.76001 291.59 293.47 298.17001 303.63 305.82001 309.64999 311.92999 317.39001 322.34 324.56 330.17999 334.01001 336.29001 340.73001 345.67999 350.63 356.25 358.53 363.17001 365.39001 367.60999 369.89001 374.32999 379.32001 383.82001 386.10999 391.73001 393.91 399.32999 407.62 412.25 415.38 419.82001 424.76999 427.81 431.64001 433.92001 436.10001 441.54999 443.84 447.03 452.48001 457.42999 459.70999 464.92001 468 472.04001 477.45999 482.91 487.76001"
               style="font-size:10px;font-variant:normal;font-weight:300;font-stretch:normal;writing-mode:lr-tb;fill:#000000;fill-opacity:1;fill-rule:nonzero;stroke:none;font-family:Myriad Pro Light;-inkscape-font-specification:MyriadPro-Light">be instantly displayed on your computer or phone 24/7 365 days a year. This helps keep all key biomarkers in the e-zone</tspan>
            <tspan
               id="tspan4275"
               sodipodi:role="line"
               y="42"
               x="0.029999999 2.74 8.1599998 13.78 16.969999 19.15 27.440001 32.849998 41.139999 43.419998 47.470001 52.880001 58.34 63.290001 66.040001 68.32 72.949997 78.410004 83.949997 86.239998 90.07 95.519997 100.89 108.21 112.04 114.32 117.51 122.97 127.6 130.78999 133.08 137.50999 142.92999 148.34 151.39 153.67 159.52 165.06 170.00999 172.3 180.25 184.89 190.35001 194.99001 200.53 205.48 213.77 218.72 224.17 227.36 229.64999 235.27 238.21001 243.63 249.09 252.14 256.78 265.07001 267.35001 269.54001 273.37 275.66 280.60999 285.98999 290.94 295.60001 298.79001 300.98001 305.51999 310.37 312.20999"
               style="font-size:10px;font-variant:normal;font-weight:300;font-stretch:normal;writing-mode:lr-tb;fill:#000000;fill-opacity:1;fill-rule:nonzero;stroke:none;font-family:Myriad Pro Light;-inkscape-font-specification:MyriadPro-Light">(optimum zone) and shows that your Age Management program is efective.</tspan>
            <tspan
               id="tspan4277"
               sodipodi:role="line"
               y="62"
               x="0.039999999 6.4000001 10.23 12.42 17.870001 23.41 25.690001 28.879999 34.34 39.290001 41.580002 46.34 49.470001 54.419998 57.529999 62.990002 65.169998 68.470001 72.970001 74.379997 77.410004 82.389999 90.68 92.970001 96.800003 102.22 104.44 109.85 113.04 115.23 120.64 125.73 127.78 130.07001 135.49001 138.21001 140.5 148.45 153.39999"
               style="font-size:10px;font-variant:normal;font-weight:300;font-stretch:normal;writing-mode:lr-tb;fill:#000000;fill-opacity:1;fill-rule:nonzero;stroke:none;font-family:Myriad Pro Light;-inkscape-font-specification:MyriadPro-Light">Using the Eternity “3m solution” of Mea</tspan>
          </text>
          <text
             id="text4279"
             transform="matrix(1,0,0,-1,214.8052,330.5645)">
            <tspan
               id="tspan4281"
               sodipodi:role="line"
               y="0"
               x="0 3.8299999 9.2399998 12.36 14.54 20 25.41 27.25 29.530001 37.490002 42.439999 47.900002 51.029999 56.450001 59.560001 61.75 67.209999 72.75 75.040001 79.68 85.139999 90.68 92.970001 100.92 106.34 111.8 113.98 117.11 122.53 125.64 127.83 133.28999 138.83 141.12 146.07001 151.53 156.17 161.78999 164.00999 168.96001 172.78999 175.08 180.7 186.11 189.94 192.13 195.32001 197.5 202.03999 206.99001 209.27 211.49001 213.67999 216.25 221.2 225.03 228.33 232.83 235.05 240 242.28999 246.84 252.28999 256.92001 262.37 267.91 272.85999 275.14001 278.32999 283.78 288.41 291.60001 293.89001 301.20999 303.39001 305.60999 307.82999 310.12 315.64001 321.04999 323.23001 327.78 332.32999 334.54999 338.95001"
               style="font-size:10px;font-variant:normal;font-weight:300;font-stretch:normal;writing-mode:lr-tb;fill:#000000;fill-opacity:1;fill-rule:nonzero;stroke:none;font-family:Myriad Pro Light;-inkscape-font-specification:MyriadPro-Light">suring, Mentoring and Monitoring enables positive lifestyle change that will quickly</tspan>
            <tspan
               id="tspan4283"
               sodipodi:role="line"
               y="14"
               x="-157.98 -152.57001 -146.95 -143.75999 -141.58 -133.28999 -131.11 -127.06 -122.11 -119.83 -115.4 -109.98 -104.57 -101.52 -99.239998 -93.779999 -88.830002 -84.190002 -81.970001 -78.779999 -73.330002"
               style="font-size:10px;font-variant:normal;font-weight:300;font-stretch:normal;writing-mode:lr-tb;fill:#000000;fill-opacity:1;fill-rule:nonzero;stroke:none;font-family:Myriad Pro Light;-inkscape-font-specification:MyriadPro-Light">optimize your health.</tspan>
            <tspan
               id="tspan4285"
               y="64"
               x="-157.98"
               style="font-size:10px;font-variant:normal;font-weight:300;font-stretch:normal;writing-mode:lr-tb;fill:#000000;fill-opacity:1;fill-rule:nonzero;stroke:none;font-family:Myriad Pro Light;-inkscape-font-specification:MyriadPro-Light"></tspan>
          </text>
        </g>
      </g>
    </g>
  </g>
</svg>
